screens;
 
http://baypic.net/img-519fbe95c6c26.html 
 
http://baypic.net/img-519fbe984a448.html 
 
http://baypic.net/img-519fbe9a8c618.html 

Format : MPEG-4
Format profile : Base Media / Version 2
Codec ID : mp42
File size : 2.47 GiB
Duration : 34mn 45s
Overall bit rate mode : Variable
Overall bit rate : 10.2 Mbps
Encoded date : UTC 2013-05-18 00:20:40
Tagged date : UTC 2013-05-18 00:20:40
Writing library : Apple QuickTime

Video
ID : 1
Format : AVC
Format/Info : Advanced Video Codec
Format profile : High@L4.0
Format settings, CABAC : No
Format settings, ReFrames : 3 frames
Codec ID : avc1
Codec ID/Info : Advanced Video Coding
Duration : 34mn 45s
Source duration : 34mn 45s
Bit rate mode : Variable
Bit rate : 9 586 Kbps
Maximum bit rate : 10.0 Mbps
Width : 1 920 pixels
Height : 1 080 pixels
Display aspect ratio : 16:9
Frame rate mode : Constant
Frame rate : 29.970 fps
Standard : Component
Color space : YUV
Chroma subsampling : 4:2:0
Bit depth : 8 bits
Scan type : Progressive
Bits/(Pixel*Frame) : 0.154
Stream size : 2.33 GiB (94%)
Source stream size : 2.43 GiB (98%)
Encoded date : UTC 2013-05-18 00:20:40
Tagged date : UTC 2013-05-17 00:21:43

Audio
ID : 2
Format : AAC
Format/Info : Advanced Audio Codec
Format profile : LC
Codec ID : 40
Duration : 34mn 45s
Bit rate mode : Variable
Bit rate : 192 Kbps
Maximum bit rate : 198 Kbps
Channel(s) : 2 channels
Channel positions : Front: L R
Sampling rate : 48.0 KHz
Compression mode : Lossy
Stream size : 47.7 MiB (2%)
